Coordinates
version=1
nRows=33
nColumns=33
inDegrees=yes

Units are S.I. units (second, meters, Newtons, ...)
Angles are in degrees.

endheader
time	ground_thorax_rot_x	ground_thorax_rot_y	ground_thorax_rot_z	ground_thorax_tx	ground_thorax_ty	ground_thorax_tz	clav_prot_r	clav_elev_r	scapula_abduction_r	scapula_elevation_r	scapula_upward_rot_r	scapula_winging_r	shoulder_elv_r	plane_of_elev_r	axial_rot_r	elbow_flexion_r	pro_sup_r	wrist_flex_r	wrist_dev_r	clav_prot_l	clav_elev_l	scapula_abduction_l	scapula_elevation_l	scapula_upward_rot_l	scapula_winging_l	shoulder_elv_l	plane_of_elev_l	axial_rot_l	elbow_flexion_l	pro_sup_l	wrist_flex_l	wrist_dev_l	
12.4000	-19.451646	-34.943455	54.504767	-11.153988	787.234075	-38.391335	29.337052	-45.000000	39.831689	-45.000000	-45.000000	975.555794	2953.820297	19.714298	-142.496084	2159.978226	-201.208900	11.075669	14.326310	-1.574343	31.057281	-27.778103	-45.000000	-45.000000	3684.262869	-3523.744787	27.029312	52.262100	1788.215975	39.319106	13.309656	-15.375361	
12.4100	-19.512728	-34.875522	54.452487	-11.314918	786.481908	-38.317489	29.352662	-45.000000	39.794407	-45.000000	-45.000000	975.554583	2953.853455	19.681036	-142.304697	2160.004732	-201.317790	11.045705	14.274713	-1.589412	31.053437	-27.742970	-45.000000	-45.000000	3684.259318	-3523.768439	27.001102	52.022905	1788.219345	39.237194	13.215992	-15.402253	
12.4200	-19.580417	-34.807163	54.397569	-11.536738	785.770623	-38.248432	29.375391	-45.000000	39.766885	-45.000000	-45.000000	975.516350	2953.872908	19.676236	-142.122396	2160.042765	-201.387474	11.026222	14.232198	-1.576738	31.046360	-27.724728	-45.000000	-45.000000	3684.258974	-3523.794168	26.964451	51.794256	1788.224909	39.151103	13.101855	-15.388655	
12.4300	-19.656320	-34.744006	54.326617	-11.814780	785.107762	-38.189693	29.394974	-45.000000	39.738923	-45.000000	-45.000000	975.511556	2953.917407	19.647260	-141.943825	2160.066472	-201.410193	11.004990	14.187958	-1.585411	31.047570	-27.706458	-45.000000	-45.000000	3684.278420	-3523.817775	26.944277	51.578028	1788.236347	39.084103	13.020452	-15.357250	
12.4400	-19.738072	-34.676990	54.250433	-12.150373	784.497691	-38.142617	29.418831	-45.000000	39.721863	-45.000000	-45.000000	975.467506	2953.947231	19.650919	-141.775607	2160.103398	-201.394257	11.003641	14.142475	-1.565606	31.043595	-27.709074	-45.000000	-45.000000	3684.292476	-3523.839301	26.907992	51.365908	1788.256305	39.054014	12.914232	-15.296661	
12.4500	-19.828207	-34.614115	54.155409	-12.546883	783.945417	-38.108802	29.435896	-45.000000	39.698937	-45.000000	-45.000000	975.467075	2954.006226	19.629718	-141.609147	2160.123574	-201.331389	11.001154	14.091233	-1.573778	31.051334	-27.708427	-45.000000	-45.000000	3684.326349	-3523.852225	26.886769	51.155625	1788.294613	39.083178	12.852297	-15.234062	
12.4600	-19.923093	-34.542588	54.056802	-13.010296	783.451055	-38.085696	29.457190	-45.000000	39.689031	-45.000000	-45.000000	975.420728	2954.044157	19.649218	-141.451111	2160.163989	-201.234450	11.021605	14.039024	-1.546546	31.049473	-27.730666	-45.000000	-45.000000	3684.354337	-3523.862990	26.845958	50.937488	1788.345475	39.180815	12.761224	-15.165026	
12.4700	-20.026550	-34.472227	53.938339	-13.545041	783.013052	-38.070692	29.468398	-45.000000	39.671035	-45.000000	-45.000000	975.426893	2954.115747	19.635331	-141.291620	2160.184377	-201.095195	11.038252	13.979081	-1.556806	31.063703	-27.745900	-45.000000	-45.000000	3684.400882	-3523.864362	26.818701	50.709627	1788.416341	39.354778	12.722330	-15.115478	
12.4800	-20.134010	-34.394688	53.821291	-14.153118	782.624961	-38.059031	29.482527	-45.000000	39.667773	-45.000000	-45.000000	975.390822	2954.163526	19.652102	-141.133886	2160.230106	-200.926854	11.072551	13.920578	-1.532250	31.067995	-27.779784	-45.000000	-45.000000	3684.443975	-3523.863916	26.773382	50.470196	1788.493926	39.595134	12.654551	-15.079744	
12.4900	-20.252795	-34.317682	53.684193	-14.833380	782.280867	-38.047564	29.487625	-45.000000	39.656590	-45.000000	-45.000000	975.401829	2954.238941	19.634605	-140.968412	2160.261153	-200.723051	11.102397	13.853865	-1.546590	31.086564	-27.806560	-45.000000	-45.000000	3684.501954	-3523.858122	26.740723	50.221986	1788.583534	39.890718	12.628287	-15.069132	
12.5000	-20.376915	-34.231875	53.545811	-15.582714	781.973141	-38.032590	29.496428	-45.000000	39.656563	-45.000000	-45.000000	975.363688	2954.289544	19.653890	-140.801874	2160.318558	-200.497957	11.149691	13.790768	-1.518880	31.091911	-27.842441	-45.000000	-45.000000	3684.551625	-3523.852340	26.699409	49.966790	1788.667172	40.216726	12.560186	-15.073349	
12.5100	-20.515213	-34.143299	53.382005	-16.398268	781.696603	-38.012147	29.498669	-45.000000	39.641687	-45.000000	-45.000000	975.364551	2954.366693	19.649246	-140.628148	2160.359028	-200.245948	11.195888	13.717040	-1.528845	31.110777	-27.865156	-45.000000	-45.000000	3684.607164	-3523.841639	26.674664	49.705853	1788.752277	40.554068	12.520883	-15.094458	
12.5200	-20.656222	-34.050131	53.222413	-17.276504	781.447729	-37.985831	29.503433	-45.000000	39.638677	-45.000000	-45.000000	975.317943	2954.418648	19.677799	-140.458286	2160.419719	-199.978993	11.256729	13.652584	-1.489676	31.115633	-27.894843	-45.000000	-45.000000	3684.657690	-3523.828620	26.643165	49.444665	1788.822662	40.881959	12.441242	-15.124878	
12.5300	-20.806703	-33.957547	53.049085	-18.215530	781.226070	-37.955464	29.505292	-45.000000	39.628381	-45.000000	-45.000000	975.298665	2954.489628	19.683977	-140.290133	2160.461222	-199.691748	11.320331	13.580771	-1.483301	31.129071	-27.924437	-45.000000	-45.000000	3684.717050	-3523.812812	26.615861	49.183279	1788.893513	41.194420	12.385431	-15.161984	
12.5400	-20.958320	-33.862049	52.879253	-19.213727	781.031129	-37.923319	29.510130	-45.000000	39.626552	-45.000000	-45.000000	975.245665	2954.546502	19.712682	-140.131765	2160.509554	-199.392607	11.392954	13.515691	-1.445799	31.135488	-27.962427	-45.000000	-45.000000	3684.775288	-3523.795224	26.581147	48.925439	1788.956707	41.486204	12.308519	-15.205107	
12.5500	-21.118857	-33.766356	52.692885	-20.270597	780.861679	-37.891462	29.512830	-45.000000	39.614597	-45.000000	-45.000000	975.225140	2954.626467	19.715833	-139.976620	2160.538193	-199.078451	11.463090	13.441034	-1.451345	31.154597	-27.998660	-45.000000	-45.000000	3684.839868	-3523.776933	26.551673	48.670503	1789.026939	41.760234	12.263515	-15.250364	
12.5600	-21.280455	-33.670672	52.505871	-21.386524	780.715962	-37.861532	29.516515	-45.000000	39.608832	-45.000000	-45.000000	975.181840	2954.697063	19.732537	-139.830735	2160.572078	-198.759024	11.532792	13.374606	-1.433430	31.170773	-28.039366	-45.000000	-45.000000	3684.903819	-3523.758372	26.517644	48.422234	1789.092589	42.015390	12.209342	-15.300558	
12.5700	-21.450946	-33.573407	52.297711	-22.562370	780.592090	-37.834583	29.519021	-45.000000	39.594449	-45.000000	-45.000000	975.158174	2954.784005	19.735908	-139.687355	2160.596124	-198.436661	11.598072	13.303052	-1.447762	31.193843	-28.076195	-45.000000	-45.000000	3684.969617	-3523.743030	26.491301	48.178377	1789.163290	42.254756	12.175632	-15.346798	
12.5800	-21.626189	-33.471347	52.075217	-23.798846	780.488767	-37.811122	29.522491	-45.000000	39.578733	-45.000000	-45.000000	975.110570	2954.864291	19.761548	-139.552107	2160.623131	-198.121730	11.660022	13.239509	-1.438133	31.214657	-28.108162	-45.000000	-45.000000	3685.027763	-3523.726415	26.469898	47.939037	1789.225251	42.476440	12.130966	-15.393715	
12.5900	-21.810893	-33.366566	51.833526	-25.095899	780.405908	-37.791334	29.521535	-45.000000	39.554433	-45.000000	-45.000000	975.080595	2954.955071	19.770299	-139.421419	2160.640624	-197.816059	11.714778	13.176717	-1.452676	31.240462	-28.135731	-45.000000	-45.000000	3685.087915	-3523.710713	26.459887	47.706077	1789.287091	42.683897	12.105600	-15.433355	
12.6000	-21.993010	-33.265903	51.596202	-26.452856	780.345162	-37.775323	29.522658	-45.000000	39.538641	-45.000000	-45.000000	975.023293	2955.027484	19.790973	-139.304000	2160.662857	-197.525162	11.766894	13.127423	-1.432516	31.257880	-28.169842	-45.000000	-45.000000	3685.145848	-3523.693372	26.438634	47.481370	1789.336052	42.877512	12.062302	-15.473996	
12.6100	-22.176758	-33.171367	51.354993	-27.868224	780.309972	-37.763371	29.522278	-45.000000	39.522981	-45.000000	-45.000000	974.981636	2955.102615	19.790506	-139.194563	2160.678160	-197.244253	11.813550	13.080474	-1.432907	31.276973	-28.210075	-45.000000	-45.000000	3685.212801	-3523.678048	26.412673	47.267254	1789.386240	43.064019	12.032997	-15.510262	
12.6200	-22.359394	-33.080221	51.111084	-29.340293	780.305299	-37.755981	29.527092	-45.000000	39.512864	-45.000000	-45.000000	974.919047	2955.163227	19.806255	-139.096022	2160.700054	-196.973489	11.858120	13.039931	-1.408870	31.290516	-28.253726	-45.000000	-45.000000	3685.275529	-3523.661487	26.376943	47.061040	1789.429168	43.246094	11.985638	-15.550974	
12.6300	-22.546476	-32.991632	50.856508	-30.867154	780.336979	-37.753818	29.529171	-45.000000	39.499001	-45.000000	-45.000000	974.872547	2955.230862	19.806075	-139.005517	2160.716231	-196.707396	11.899087	12.999032	-1.405745	31.308335	-28.295935	-45.000000	-45.000000	3685.342636	-3523.645969	26.345103	46.864401	1789.477036	43.431210	11.950770	-15.589228	
12.6400	-22.733031	-32.904977	50.596030	-32.447524	780.410946	-37.757500	29.535700	-45.000000	39.489293	-45.000000	-45.000000	974.807202	2955.289798	19.821440	-138.928612	2160.736939	-196.445888	11.940598	12.963381	-1.381179	31.322217	-28.337485	-45.000000	-45.000000	3685.404587	-3523.628551	26.309173	46.675186	1789.519426	43.623287	11.899533	-15.633936	
12.6500	-22.928413	-32.815396	50.314842	-34.080589	780.532565	-37.767489	29.538620	-45.000000	39.472698	-45.000000	-45.000000	974.753994	2955.357667	19.828742	-138.861504	2160.750183	-196.185826	11.980443	12.927505	-1.378502	31.341688	-28.376136	-45.000000	-45.000000	3685.469975	-3523.611987	26.285992	46.496482	1789.565361	43.829275	11.861527	-15.679409	
12.6600	-23.129707	-32.720248	50.015370	-35.766213	780.706161	-37.784025	29.541276	-45.000000	39.456764	-45.000000	-45.000000	974.685654	2955.420449	19.851461	-138.809614	2160.764942	-195.930572	12.020086	12.898151	-1.360264	31.360149	-28.412815	-45.000000	-45.000000	3685.529464	-3523.593881	26.270455	46.328579	1789.605885	44.051448	11.814425	-15.733210	
12.6700	-23.340191	-32.622157	49.696710	-37.504531	780.934799	-37.807229	29.538215	-45.000000	39.436364	-45.000000	-45.000000	974.628369	2955.489476	19.862552	-138.770690	2160.771218	-195.680856	12.058184	12.871219	-1.362159	31.384209	-28.451085	-45.000000	-45.000000	3685.592968	-3523.576823	26.265164	46.175287	1789.649802	44.294125	11.782761	-15.789327	
12.6800	-23.552614	-32.524176	49.366588	-39.295847	781.220246	-37.837228	29.534651	-45.000000	39.420643	-45.000000	-45.000000	974.559697	2955.551907	19.883073	-138.746708	2160.779291	-195.442294	12.095723	12.852080	-1.350907	31.406667	-28.493138	-45.000000	-45.000000	3685.654952	-3523.559176	26.258065	46.036657	1789.690091	44.556651	11.745002	-15.854165	
12.6900	-23.768395	-32.428301	49.023935	-41.140160	781.563066	-37.874303	29.527765	-45.000000	39.404370	-45.000000	-45.000000	974.497303	2955.617721	19.898261	-138.732645	2160.783580	-195.218505	12.131473	12.836716	-1.350562	31.431503	-28.537317	-45.000000	-45.000000	3685.720649	-3523.541194	26.252690	45.912289	1789.732026	44.839052	11.716594	-15.921249	
12.7000	-23.983026	-32.335276	48.675664	-43.036560	781.962740	-37.918924	29.520347	-45.000000	39.391650	-45.000000	-45.000000	974.427586	2955.681469	19.917042	-138.728654	2160.788310	-195.015909	12.165628	12.827898	-1.341211	31.455483	-28.583745	-45.000000	-45.000000	3685.784561	-3523.520998	26.243108	45.800020	1789.770266	45.136894	11.686517	-15.992936	
12.7100	-24.198881	-32.245733	48.322594	-44.983181	782.417891	-37.971722	29.511505	-45.000000	39.378518	-45.000000	-45.000000	974.359685	2955.749040	19.928856	-138.731350	2160.788993	-194.838606	12.197929	12.823427	-1.338454	31.480420	-28.634431	-45.000000	-45.000000	3685.852485	-3523.497708	26.231771	45.699525	1789.807346	45.444027	11.664854	-16.064297	
12.7200	-24.417612	-32.156712	47.961448	-46.976961	782.926556	-38.033415	29.502307	-45.000000	39.365360	-45.000000	-45.000000	974.286541	2955.814782	19.942698	-138.737412	2160.788630	-194.690063	12.226456	12.826442	-1.333469	31.505546	-28.690755	-45.000000	-45.000000	3685.924711	-3523.472612	26.220835	45.611626	1789.839947	45.749352	11.648570	-16.138597	
